<mxfile host="app.diagrams.net" agent="Mozilla/5.0 (Macintosh; Intel Mac OS X 10_15_7) AppleWebKit/605.1.15 (KHTML, like Gecko) Version/18.1 Safari/605.1.15" version="26.0.11">
  <diagram name="Page-1" id="vH0KfMhrMlM-kf9XVmqa">
    <mxGraphModel dx="838" dy="593" grid="1" gridSize="10" guides="1" tooltips="1" connect="1" arrows="1" fold="1" page="1" pageScale="1" pageWidth="850" pageHeight="1100" math="0" shadow="0">
      <root>
        <mxCell id="0" />
        <mxCell id="1" parent="0" />
        <mxCell id="YntdFx-RL_blogX_2ePG-6" style="edgeStyle=orthogonalEdgeStyle;rounded=0;orthogonalLoop=1;jettySize=auto;html=1;exitX=1;exitY=0.5;exitDx=0;exitDy=0;" edge="1" parent="1" source="YntdFx-RL_blogX_2ePG-1" target="YntdFx-RL_blogX_2ePG-2">
          <mxGeometry relative="1" as="geometry" />
        </mxCell>
        <mxCell id="YntdFx-RL_blogX_2ePG-1" value="Documents" style="rounded=1;whiteSpace=wrap;html=1;" vertex="1" parent="1">
          <mxGeometry x="80" y="80" width="120" height="80" as="geometry" />
        </mxCell>
        <mxCell id="YntdFx-RL_blogX_2ePG-7" style="edgeStyle=orthogonalEdgeStyle;rounded=0;orthogonalLoop=1;jettySize=auto;html=1;exitX=1;exitY=0.5;exitDx=0;exitDy=0;" edge="1" parent="1" source="YntdFx-RL_blogX_2ePG-2" target="YntdFx-RL_blogX_2ePG-3">
          <mxGeometry relative="1" as="geometry" />
        </mxCell>
        <mxCell id="YntdFx-RL_blogX_2ePG-2" value="Split into chucks/sentences" style="rounded=1;whiteSpace=wrap;html=1;" vertex="1" parent="1">
          <mxGeometry x="280" y="80" width="120" height="80" as="geometry" />
        </mxCell>
        <mxCell id="YntdFx-RL_blogX_2ePG-8" style="edgeStyle=orthogonalEdgeStyle;rounded=0;orthogonalLoop=1;jettySize=auto;html=1;exitX=1;exitY=0.5;exitDx=0;exitDy=0;entryX=0;entryY=0.5;entryDx=0;entryDy=0;" edge="1" parent="1" source="YntdFx-RL_blogX_2ePG-3" target="YntdFx-RL_blogX_2ePG-4">
          <mxGeometry relative="1" as="geometry" />
        </mxCell>
        <mxCell id="YntdFx-RL_blogX_2ePG-3" value="Embedding service&amp;nbsp;" style="rounded=1;whiteSpace=wrap;html=1;" vertex="1" parent="1">
          <mxGeometry x="480" y="80" width="120" height="80" as="geometry" />
        </mxCell>
        <mxCell id="YntdFx-RL_blogX_2ePG-4" value="Vector DB" style="rounded=1;whiteSpace=wrap;html=1;" vertex="1" parent="1">
          <mxGeometry x="680" y="80" width="120" height="80" as="geometry" />
        </mxCell>
        <mxCell id="YntdFx-RL_blogX_2ePG-5" value="" style="swimlane;startSize=0;" vertex="1" parent="1">
          <mxGeometry x="40" y="40" width="800" height="160" as="geometry" />
        </mxCell>
        <mxCell id="YntdFx-RL_blogX_2ePG-9" value="Document ingestion" style="text;html=1;align=center;verticalAlign=middle;whiteSpace=wrap;rounded=0;" vertex="1" parent="YntdFx-RL_blogX_2ePG-5">
          <mxGeometry width="200" height="40" as="geometry" />
        </mxCell>
      </root>
    </mxGraphModel>
  </diagram>
</mxfile>
